<svg xmlns="http://www.w3.org/2000/svg" viewBox="0 0 222.7 222.5"><defs><style>.cls-1{fill:#2490eb;opacity:0.2;}</style></defs><g id="Layer_2" data-name="Layer 2"><g id="Layer_1-2" data-name="Layer 1"><path class="cls-1" d="M192.9,63.3H171.4s-.1,12.4-.2,14.7H193a14.9,14.9,0,0,1,14.8,14.8v36.9A14.9,14.9,0,0,1,193,144.5H151.8c-8.6,0-14.9-.9-19.7-2.4-6.7-2.3-10.1-6.1-11.8-11.2-3.3.1-6.4.2-9.1.2h-6c2.4,11.4,9,21.9,26.9,26.2a86.87,86.87,0,0,0,12.3,1.8v34.1a14.72,14.72,0,0,1-14.7,14.7H92.8A14.87,14.87,0,0,1,78,193.2V152c0-33.2,12.5-33.2,33.2-33.2,20.2,0,47.9,0,47.9-47.9V29.5A29.49,29.49,0,0,0,129.6,0H92.7A29.49,29.49,0,0,0,63.2,29.5V63.3H29.5A29.49,29.49,0,0,0,0,92.8v36.9a29.49,29.49,0,0,0,29.5,29.5H51v-7.4c0-2.6.1-5,.2-7.4H29.5a14.75,14.75,0,0,1-14.7-14.8V92.7A14.87,14.87,0,0,1,29.5,77.9H70.7c8.6,0,15,.9,19.7,2.4,6.7,2.3,10.1,6.1,11.8,11.2,3.3-.1,6.4-.2,9.1-.2,2,0,4,0,6-.1-2.4-11.4-9-21.9-26.9-26.2a84.81,84.81,0,0,0-12.3-1.8V29.5A14.75,14.75,0,0,1,92.9,14.8h36.9a14.87,14.87,0,0,1,14.8,14.7V70.7c0,33.2-12.5,33.2-33.2,33.2-20.2,0-47.9,0-47.9,47.9V193A29.49,29.49,0,0,0,93,222.5h36.9A29.49,29.49,0,0,0,159.4,193V159.2h33.8a29.49,29.49,0,0,0,29.5-29.5V92.8A29.94,29.94,0,0,0,192.9,63.3Z"/></g></g></svg>